# xmcd CD database file
#
# Track frame offsets:
#	150
#	38792
#	70007
#	85245
#	105225
#	114507
#	136650
#	150607
#
# Disc length: 2437 seconds
#
# Revision: 0
# Processed by: cddbd v1.5.1PL2 Copyright (c) Steve Scherf et al.
# Submitted via: CD2WAV32(JP) R3.22
#
DISCID=56098308
DTITLE=篠田昌巳 - 東京チンドン　Vol.2(DISK2)
DYEAR=1984
DGENRE=JPop
TTITLE0=青島マーチ
TTITLE1=国境の町
TTITLE2=あの丘越えて
TTITLE3=あの丘越えて
TTITLE4=涙の連絡船
TTITLE5=さざんかの宿
TTITLE6=誰か故郷を想わざる
TTITLE7=竹に雀
EXTD=
EXTT0=
EXTT1=
EXTT2=
EXTT3=
EXTT4=
EXTT5=
EXTT6=
EXTT7=
PLAYORDER=
